<svg xmlns="http://www.w3.org/2000/svg" xmlns:xlink="http://www.w3.org/1999/xlink" xmlns:lucid="lucid" width="1760" height="1360"><g transform="translate(0 0)" lucid:page-tab-id="0_0"><path d="M878.55 360.5v44.72c0 6.63-5.38 12-12 12H680.9c-6.64 0-12 5.37-12 12v13" stroke="#333" fill="none"/><path d="M879.05 360.5h-1v-.5h1z" fill="#333"/><path d="M668.9 456.98l-4.65-14.27h9.27z" stroke="#333" fill="#333"/><path d="M878.55 360.5v44.72c0 6.63 5.37 12 12 12h178.34c6.62 0 12 5.37 12 12v13" stroke="#333" fill="none"/><path d="M879.05 360.5h-1v-.5h1z" fill="#333"/><path d="M1080.9 456.98l-4.65-14.27h9.27z" stroke="#333" fill="#333"/><path d="M878.55 360.5v44.72c0 6.63 5.37 12 12 12h590.34c6.62 0 12 5.37 12 12v13" stroke="#333" fill="none"/><path d="M879.05 360.5h-1v-.5h1z" fill="#333"/><path d="M1492.9 456.98l-4.65-14.27h9.27z" stroke="#333" fill="#333"/><path d="M1080.9 579.1v47.3c0 6.63-5.38 12-12 12H995.5c-6.63 0-12 5.37-12 12v10.4" stroke="#333" fill="none"/><path d="M1081.4 579.1h-1v-.5h1z" fill="#333"/><path d="M983.52 675.58l-4.63-14.27h9.26z" stroke="#333" fill="#333"/><path d="M668.9 579.1v47.3c0 6.63-5.38 12-12 12H579.5c-6.63 0-12 5.37-12 12v10.4" stroke="#333" fill="none"/><path d="M669.4 579.1h-1v-.5h1z" fill="#333"/><path d="M567.52 675.58l-4.63-14.27h9.26z" stroke="#333" fill="#333"/><path d="M257.4 626.43l-.43 3.2-1.24 3-2 2.6-2.6 2-3 1.25-3.2.42h-81.38l-3 .4-2.77 1.14-2.4 1.83-1.82 2.4-1.14 2.75-.4 3v10.4h-1v-10.45l.42-3.22 1.24-3 2-2.6 2.6-2 3-1.23 3.2-.42h81.38l3-.4 2.77-1.14 2.4-1.83 1.82-2.4 1.14-2.75.4-3v-8.04h1zm0-26.76h-1V579.1h1zM257.4 579.1h-1v-.5h1zM151.52 675.58l-4.63-14.27h9.26z" fill="#333"/><path d="M151.52 677.2l-5.32-16.4h10.64zm-3.95-15.4l3.95 12.16 3.95-12.15z" fill="#333"/><use xlink:href="#a" transform="matrix(1,0,0,1,173.17051716361945,599.67143401921) translate(0.0049999999999954525 12.444444444444446)"/><use xlink:href="#b" transform="matrix(1,0,0,1,173.17051716361945,599.67143401921) translate(100.07907407407407 12.444444444444446)"/><use xlink:href="#c" transform="matrix(1,0,0,1,173.17051716361945,599.67143401921) translate(121.68401234567901 12.444444444444446)"/><path d="M257.4 626.37l.38 3 1.15 2.77 1.83 2.4 2.4 1.82 2.75 1.14 3.02.4h78.63l3.22.42 3 1.24 2.6 2 2 2.6 1.23 3 .42 3.2v10.45h-1v-10.37l-.4-3-1.14-2.77-1.83-2.4-2.4-1.82-2.75-1.15-3-.4h-78.64l-3.2-.42-3-1.24-2.6-2-2-2.6-1.25-3-.4-3.2v-8.1h1zm0-26.7h-1V579.1h1zM257.4 579.1h-1v-.5h1zM359.52 675.58l-4.63-14.27h9.26z" fill="#333"/><path d="M359.52 677.2l-5.32-16.4h10.64zm-3.95-15.4l3.95 12.16 3.95-12.15z" fill="#333"/><path d="M668.9 579.1v47.3c0 6.63 5.36 12 12 12h82.62c6.63 0 12 5.37 12 12v10.4" stroke="#333" fill="none"/><path d="M669.4 579.1h-1v-.5h1z" fill="#333"/><path d="M775.52 675.58l-4.63-14.27h9.26z" stroke="#333" fill="#333"/><path d="M1080.9 579.1v47.3c0 6.63 5.36 12 12 12h86.62c6.63 0 12 5.37 12 12v10.4" stroke="#333" fill="none"/><path d="M1081.4 579.1h-1v-.5h1z" fill="#333"/><path d="M1191.52 675.58l-4.63-14.27h9.26z" stroke="#333" fill="#333"/><path d="M668.9 579.1v244.52" stroke="#333" fill="none"/><path d="M669.4 579.1h-1v-.5h1z" fill="#333"/><path d="M668.9 838.38l-4.65-14.26h9.27z" stroke="#333" fill="#333"/><path d="M257.4 797.33l-.43 3.2-1.24 3-2 2.6-2.6 2-3 1.25-3.2.42h-81.38l-3 .4-2.77 1.14-2.4 1.83-1.82 2.4-1.14 2.75-.4 3v202.3h-1V821.27l.42-3.22 1.24-3 2-2.6 2.6-2 3-1.23 3.2-.42h81.38l3-.4 2.77-1.14 2.4-1.83 1.82-2.4 1.14-2.75.4-3V618.33h1zm0-197.66h-1V579.1h1zM257.4 579.1h-1v-.5h1zM151.52 1038.38l-4.63-14.26h9.26z" fill="#333"/><path d="M151.52 1040l-5.32-16.38h10.64zm-3.95-15.38l3.95 12.14 3.95-12.14z" fill="#333"/><path d="M878.55 360.5v44.85c0 6.63-5.38 12-12 12H268.9c-6.64 0-12 5.38-12 12v12.86" stroke="#333" fill="none"/><path d="M879.05 360.5h-1v-.5h1z" fill="#333"/><path d="M256.9 456.98l-4.65-14.27h9.27z" stroke="#333" fill="#333"/><path d="M722.46 248c0-4.42 3.58-8 8-8h296.17c4.42 0 8 3.58 8 8v104c0 4.42-3.58 8-8 8H730.46c-4.42 0-8-3.58-8-8z" stroke="#000" stroke-opacity="0" fill="#3278ca"/><use xlink:href="#d" transform="matrix(1,0,0,1,727.4589744320662,245) translate(125.44444444444444 60.6875)"/><path d="M176.9 466.6c0-4.42 3.57-8 8-8h144c4.4 0 8 3.58 8 8v104c0 4.42-3.6 8-8 8h-144c-4.43 0-8-3.58-8-8z" stroke="#000" stroke-opacity="0" fill="#4397ff"/><use xlink:href="#e" transform="matrix(1,0,0,1,181.8896529660886,463.59812133117634) translate(44.344993141289436 58.51466049382716)"/><path d="M588.9 466.6c0-4.42 3.57-8 8-8h144c4.4 0 8 3.58 8 8v104c0 4.42-3.6 8-8 8h-144c-4.43 0-8-3.58-8-8z" stroke="#000" stroke-opacity="0" fill="#4397ff"/><use xlink:href="#f" transform="matrix(1,0,0,1,593.8896529660886,463.59812133117634) translate(53.46707818930041 58.51466049382716)"/><path d="M1000.9 466.6c0-4.42 3.57-8 8-8h144c4.4 0 8 3.58 8 8v104c0 4.42-3.6 8-8 8h-144c-4.43 0-8-3.58-8-8z" stroke="#000" stroke-opacity="0" fill="#4397ff"/><use xlink:href="#g" transform="matrix(1,0,0,1,1005.8896529660888,463.59812133117634) translate(52.96296296296296 58.51466049382716)"/><path d="M1412.9 466.6c0-4.42 3.57-8 8-8h144c4.4 0 8 3.58 8 8v104c0 4.42-3.6 8-8 8h-144c-4.43 0-8-3.58-8-8z" stroke="#000" stroke-opacity="0" fill="#4397ff"/><use xlink:href="#h" transform="matrix(1,0,0,1,1417.8896529660888,463.59812133117634) translate(51.978737997256516 58.51466049382716)"/><path d="M71.52 685.2c0-4.42 3.58-8 8-8h144c4.42 0 8 3.58 8 8v104c0 4.4-3.58 8-8 8h-144c-4.42 0-8-3.6-8-8z" stroke="#000" stroke-opacity="0" fill="#75b2ff"/><use xlink:href="#i" transform="matrix(1,0,0,1,76.52130701940098,682.1962426623527) translate(52.914951989026065 58.51466049382716)"/><path d="M71.52 1048c0-4.42 3.58-8 8-8h144c4.42 0 8 3.58 8 8v104c0 4.42-3.58 8-8 8h-144c-4.42 0-8-3.58-8-8z" stroke="#000" stroke-opacity="0" fill="#75b2ff"/><use xlink:href="#j" transform="matrix(1,0,0,1,76.52130701940098,1045) translate(48.161865569272976 58.51466049382716)"/><path d="M279.52 685.2c0-4.42 3.58-8 8-8h144c4.42 0 8 3.58 8 8v104c0 4.4-3.58 8-8 8h-144c-4.42 0-8-3.6-8-8z" stroke="#000" stroke-opacity="0" fill="#75b2ff"/><use xlink:href="#k" transform="matrix(1,0,0,1,284.521307019401,682.1962426623527) translate(29.941700960219478 58.51466049382716)"/><path d="M487.52 685.2c0-4.42 3.58-8 8-8h144c4.42 0 8 3.58 8 8v104c0 4.4-3.58 8-8 8h-144c-4.42 0-8-3.6-8-8z" stroke="#000" stroke-opacity="0" fill="#75b2ff"/><use xlink:href="#l" transform="matrix(1,0,0,1,492.521307019401,682.1962426623527) translate(52.93895747599451 58.51466049382716)"/><path d="M588.9 848c0-4.42 3.57-8 8-8h144c4.4 0 8 3.58 8 8v104c0 4.42-3.6 8-8 8h-144c-4.43 0-8-3.58-8-8z" stroke="#000" stroke-opacity="0" fill="#75b2ff"/><use xlink:href="#m" transform="matrix(1,0,0,1,593.8896529660886,845) translate(51.522633744855966 58.51466049382716)"/><path d="M695.52 685.2c0-4.42 3.58-8 8-8h144c4.42 0 8 3.58 8 8v104c0 4.4-3.58 8-8 8h-144c-4.42 0-8-3.6-8-8z" stroke="#000" stroke-opacity="0" fill="#75b2ff"/><use xlink:href="#n" transform="matrix(1,0,0,1,700.521307019401,682.1962426623527) translate(51.81069958847737 58.51466049382716)"/><path d="M903.52 685.2c0-4.42 3.58-8 8-8h144c4.42 0 8 3.58 8 8v104c0 4.4-3.58 8-8 8h-144c-4.42 0-8-3.6-8-8z" stroke="#000" stroke-opacity="0" fill="#75b2ff"/><use xlink:href="#o" transform="matrix(1,0,0,1,908.5213070194009,682.1962426623527) translate(43.888888888888886 58.51466049382716)"/><path d="M1111.52 685.2c0-4.42 3.58-8 8-8h144c4.42 0 8 3.58 8 8v104c0 4.4-3.58 8-8 8h-144c-4.42 0-8-3.6-8-8z" stroke="#000" stroke-opacity="0" fill="#75b2ff"/><use xlink:href="#p" transform="matrix(1,0,0,1,1116.5213070194009,682.1962426623527) translate(53.89917695473251 58.51466049382716)"/><path d="M420 77c0-4.42 3.58-8 8-8h902.97c4.42 0 8 3.58 8 8v25.16c0 4.4-3.58 8-8 8H428c-4.42 0-8-3.6-8-8z" stroke="#000" stroke-opacity="0" stroke-width="2" fill="#fff" fill-opacity="0"/><use xlink:href="#q" transform="matrix(1,0,0,1,424.00000000000034,73) translate(352.7192592592593 25.782777777777778)"/><use xlink:href="#r" transform="matrix(1,0,0,1,424.00000000000034,73) translate(426.8698765432099 25.782777777777778)"/><path d="M740.58 108.8h280.37M740.6 108.8h-1.02M1020.93 108.8h1.02" stroke="#a9afb8" stroke-width="2" fill="none"/><path d="M420 118.16c0-4.42 3.58-8 8-8h904c4.42 0 8 3.58 8 8V121c0 4.42-3.58 8-8 8H428c-4.42 0-8-3.58-8-8z" stroke="#000" stroke-opacity="0" stroke-width="2" fill="#fff" fill-opacity="0"/><use xlink:href="#s" transform="matrix(1,0,0,1,424.00000000000074,114.1552239567824) translate(351.57733539094653 14.917037037037037)"/><use xlink:href="#t" transform="matrix(1,0,0,1,424.00000000000074,114.1552239567824) translate(445.0122119341564 14.917037037037037)"/><use xlink:href="#u" transform="matrix(1,0,0,1,424.00000000000074,114.1552239567824) translate(457.4616975308642 14.917037037037037)"/><use xlink:href="#v" transform="matrix(1,0,0,1,424.00000000000074,114.1552239567824) translate(516.0550102880659 14.917037037037037)"/><use xlink:href="#w" transform="matrix(1,0,0,1,424.00000000000074,114.1552239567824) translate(533.0508950617284 14.917037037037037)"/><path d="M279.52 1048c0-4.42 3.58-8 8-8h144c4.42 0 8 3.58 8 8v104c0 4.42-3.58 8-8 8h-144c-4.42 0-8-3.58-8-8z" stroke="#000" stroke-opacity="0" fill="#75b2ff"/><g><use xlink:href="#m" transform="matrix(1,0,0,1,284.521307019401,1045) translate(51.522633744855966 58.51466049382716)"/></g><path d="M257.4 806.27H348c6.63 0 12 5.37 12 12v205.35M257.4 806.27h-.5" stroke="#333" fill="none"/><path d="M360 1038.38l-4.64-14.26h9.28z" stroke="#333" fill="#333"/><defs><path fill="#333" d="M87-220l-18 92h140l-5 28H64L45 0H11l48-248h178l-5 28H87" id="x"/><path fill="#333" d="M66-151c12-25 30-51 66-40l-6 26C45-176 58-65 38 0H6l36-190h30" id="y"/><path fill="#333" d="M165-48c-4 18 1 34 23 27l-3 20c-29 8-62 0-52-35h-2C116-14 99 4 63 4 30 4 8-16 8-49c0-68 71-67 138-67 10-26 0-56-31-54-26 1-42 9-47 31l-32-5c8-67 160-71 144 15-5 28-9 54-15 81zM42-50c3 52 80 24 89-6 7-12 7-24 11-38-47 1-103-4-100 44" id="z"/><path fill="#333" d="M55-144c13 50 104 24 104 88C159 21 15 23 1-39l26-10c6 40 102 42 102-4-13-50-104-23-104-87 0-71 143-71 148-8l-29 4c-5-35-85-37-89 0" id="A"/><path fill="#333" d="M111-194c62-3 86 47 72 106H45c-7 38 6 69 45 68 27-1 43-14 53-32l24 11C152-15 129 4 87 4 38 3 12-23 12-71c0-70 32-119 99-123zm44 81c14-66-71-72-95-28-4 8-8 17-11 28h106" id="B"/><path fill="#333" d="M-20 4l123-265h28L8 4h-28" id="C"/><path fill="#333" d="M67-162c32-53 139-36 121 50C175-51 163 2 97 4 68 4 52-11 42-31 38 6 28 39 22 75H-9l50-265h29c-1 10 0 20-3 28zm89 36c0-26-10-43-35-43-54 0-67 50-69 103-1 29 14 45 42 46 53 0 62-58 62-106" id="D"/><path fill="#333" d="M6 0l50-261h32L37 0H6" id="E"/><path fill="#333" d="M68-162c25-46 127-43 121 31C183-60 169 1 98 4 69 5 53-11 43-31L36 0H5l52-261h31zm88 36c2-27-9-43-34-43-55 0-70 51-70 103 0 29 15 45 43 46 52 0 58-58 61-106" id="F"/><g id="a"><use transform="matrix(0.04320987654320988,0,0,0.04320987654320988,0,0)" xlink:href="#x"/><use transform="matrix(0.04320987654320988,0,0,0.04320987654320988,9.462962962962964,0)" xlink:href="#y"/><use transform="matrix(0.04320987654320988,0,0,0.04320987654320988,14.60493827160494,0)" xlink:href="#z"/><use transform="matrix(0.04320987654320988,0,0,0.04320987654320988,23.246913580246915,0)" xlink:href="#A"/><use transform="matrix(0.04320987654320988,0,0,0.04320987654320988,31.024691358024693,0)" xlink:href="#B"/><use transform="matrix(0.04320987654320988,0,0,0.04320987654320988,39.66666666666667,0)" xlink:href="#C"/><use transform="matrix(0.04320987654320988,0,0,0.04320987654320988,43.98765432098766,0)" xlink:href="#D"/><use transform="matrix(0.04320987654320988,0,0,0.04320987654320988,52.62962962962963,0)" xlink:href="#z"/><use transform="matrix(0.04320987654320988,0,0,0.04320987654320988,61.27160493827161,0)" xlink:href="#E"/><use transform="matrix(0.04320987654320988,0,0,0.04320987654320988,64.68518518518519,0)" xlink:href="#z"/><use transform="matrix(0.04320987654320988,0,0,0.04320987654320988,73.32716049382717,0)" xlink:href="#F"/><use transform="matrix(0.04320987654320988,0,0,0.04320987654320988,81.96913580246914,0)" xlink:href="#y"/><use transform="matrix(0.04320987654320988,0,0,0.04320987654320988,87.11111111111111,0)" xlink:href="#z"/></g><path fill="#333" d="M133-28C103 26-5 8 13-77c13-62 24-115 90-117 29-1 46 15 56 35l19-102h32L160 0h-30zM45-64c-2 27 10 43 35 43 54-1 69-50 69-103 0-29-15-46-42-46-53-1-58 58-62 106" id="G"/><g id="b"><use transform="matrix(0.04320987654320988,0,0,0.04320987654320988,0,0)" xlink:href="#G"/><use transform="matrix(0.04320987654320988,0,0,0.04320987654320988,8.641975308641976,0)" xlink:href="#B"/></g><path fill="#333" d="M67-158c22-48 132-52 116 29L158 0h-32l25-140c3-38-53-32-70-12C52-117 51-52 38 0H6l36-190h30" id="H"/><path fill="#333" d="M44-68c0 29 11 47 38 47 30 0 42-19 51-41l28 9C148-21 126 4 82 4 31 4 10-29 12-85c3-77 74-140 146-93 12 8 15 23 18 40l-31 5c-1-22-13-36-36-36-52 0-65 49-65 101" id="I"/><g id="c"><use transform="matrix(0.04320987654320988,0,0,0.04320987654320988,0,0)" xlink:href="#B"/><use transform="matrix(0.04320987654320988,0,0,0.04320987654320988,8.641975308641976,0)" xlink:href="#H"/><use transform="matrix(0.04320987654320988,0,0,0.04320987654320988,17.283950617283953,0)" xlink:href="#E"/><use transform="matrix(0.04320987654320988,0,0,0.04320987654320988,20.69753086419753,0)" xlink:href="#z"/><use transform="matrix(0.04320987654320988,0,0,0.04320987654320988,29.339506172839503,0)" xlink:href="#I"/><use transform="matrix(0.04320987654320988,0,0,0.04320987654320988,37.117283950617285,0)" xlink:href="#B"/></g><path fill="#fff" d="M6 0l48-248h52L58 0H6" id="J"/><path fill="#fff" d="M151-194c95 0 34 128 28 194h-49l25-134c0-29-45-25-59-9C67-111 69-48 56 0H6l36-190h47l-4 32c15-20 33-36 66-36" id="K"/><path fill="#fff" d="M50-224l7-37h49l-7 37H50zM6 0l37-190h49L55 0H6" id="L"/><path fill="#fff" d="M67-101c-8 29-7 73 27 71 23-2 32-16 39-37l48 9C170-19 141 4 91 4 36 4 7-28 12-86c6-75 61-124 140-103 26 7 40 29 43 59l-50 4c-1-20-9-34-29-34-35 0-41 29-49 59" id="M"/><path fill="#fff" d="M124-194c51 0 84 22 84 74C207-44 167 4 94 4 43 4 11-23 11-74c0-74 41-120 113-120zM99-30c46 0 58-42 58-86 0-27-11-44-37-44-44 0-55 40-57 84-1 27 10 45 36 46" id="N"/><g id="d"><use transform="matrix(0.05555555555555555,0,0,0.05555555555555555,0,0)" xlink:href="#J"/><use transform="matrix(0.05555555555555555,0,0,0.05555555555555555,5.555555555555555,0)" xlink:href="#K"/><use transform="matrix(0.05555555555555555,0,0,0.05555555555555555,17.72222222222222,0)" xlink:href="#L"/><use transform="matrix(0.05555555555555555,0,0,0.05555555555555555,23.27777777777778,0)" xlink:href="#M"/><use transform="matrix(0.05555555555555555,0,0,0.05555555555555555,34.388888888888886,0)" xlink:href="#L"/><use transform="matrix(0.05555555555555555,0,0,0.05555555555555555,39.94444444444444,0)" xlink:href="#N"/></g><path fill="#fff" d="M179 0l23-115H67L45 0H11l48-248h34L72-143h135l21-105h32L212 0h-33" id="O"/><path fill="#fff" d="M30-147c31-64 166-65 159 27C183-49 158 1 86 4 9 8 1-88 30-147zM88-20c53 0 68-48 68-100 0-31-11-51-44-50-52 1-68 46-68 97 0 32 13 53 44 53" id="P"/><path fill="#fff" d="M248-111c6-24 9-61-24-58-72 9-57 108-77 169h-31l26-142c3-37-50-30-64-10C52-115 50-51 37 0H6l36-190h30c-1 10-6 24-4 32 13-43 101-52 105 5 13-22 29-41 61-41 90 0 28 129 23 194h-31" id="Q"/><path fill="#fff" d="M68-162c25-46 127-43 121 31C183-60 169 1 98 4 69 5 53-11 43-31L36 0H5l52-261h31zm88 36c2-27-9-43-34-43-55 0-70 51-70 103 0 29 15 45 43 46 52 0 58-58 61-106" id="R"/><path fill="#fff" d="M66-151c12-25 30-51 66-40l-6 26C45-176 58-65 38 0H6l36-190h30" id="S"/><path fill="#fff" d="M111-194c62-3 86 47 72 106H45c-7 38 6 69 45 68 27-1 43-14 53-32l24 11C152-15 129 4 87 4 38 3 12-23 12-71c0-70 32-119 99-123zm44 81c14-66-71-72-95-28-4 8-8 17-11 28h106" id="T"/><g id="e"><use transform="matrix(0.04801097393689986,0,0,0.04801097393689986,0,0)" xlink:href="#O"/><use transform="matrix(0.04801097393689986,0,0,0.04801097393689986,12.434842249657065,0)" xlink:href="#P"/><use transform="matrix(0.04801097393689986,0,0,0.04801097393689986,22.037037037037038,0)" xlink:href="#Q"/><use transform="matrix(0.04801097393689986,0,0,0.04801097393689986,36.3923182441701,0)" xlink:href="#R"/><use transform="matrix(0.04801097393689986,0,0,0.04801097393689986,45.99451303155007,0)" xlink:href="#S"/><use transform="matrix(0.04801097393689986,0,0,0.04801097393689986,51.707818930041164,0)" xlink:href="#T"/></g><path fill="#fff" d="M222 0l43-216c-8 16-17 34-26 49L143 0h-22L81-216 41 0H11l48-248h42l38 208 116-208h45L252 0h-30" id="U"/><path fill="#fff" d="M67 3c-93-2-31-127-26-193h32L48-50c-3 39 53 32 70 12 30-34 30-101 43-152h32L157 0h-30c1-10 6-24 4-33-14 20-29 37-64 36" id="V"/><path fill="#fff" d="M51-231l6-30h31l-6 30H51zM33 24C28 60 2 84-40 72c3-12-1-29 18-22C-5 49-1 37 2 19l41-209h32" id="W"/><g id="f"><use transform="matrix(0.04801097393689986,0,0,0.04801097393689986,0,0)" xlink:href="#U"/><use transform="matrix(0.04801097393689986,0,0,0.04801097393689986,14.355281207133059,0)" xlink:href="#V"/><use transform="matrix(0.04801097393689986,0,0,0.04801097393689986,23.957475994513032,0)" xlink:href="#W"/><use transform="matrix(0.04801097393689986,0,0,0.04801097393689986,27.75034293552812,0)" xlink:href="#T"/><use transform="matrix(0.04801097393689986,0,0,0.04801097393689986,37.352537722908096,0)" xlink:href="#S"/></g><path fill="#fff" d="M173 0L80-213 41 0H11l48-248h37l94 214 40-214h30L212 0h-39" id="X"/><path fill="#fff" d="M50-231l6-30h32l-6 30H50zM6 0l37-190h31L37 0H6" id="Y"/><path fill="#fff" d="M67-158c22-48 132-52 116 29L158 0h-32l25-140c3-38-53-32-70-12C52-117 51-52 38 0H6l36-190h30zm126-100c-8 21-15 46-44 47-22 0-30-19-50-21-14 0-21 10-25 21H58c8-21 14-47 44-47 22 0 32 18 50 21 13-1 21-10 25-21h16" id="Z"/><path fill="#fff" d="M55-144c13 50 104 24 104 88C159 21 15 23 1-39l26-10c6 40 102 42 102-4-13-50-104-23-104-87 0-71 143-71 148-8l-29 4c-5-35-85-37-89 0" id="aa"/><g id="g"><use transform="matrix(0.04801097393689986,0,0,0.04801097393689986,0,0)" xlink:href="#X"/><use transform="matrix(0.04801097393689986,0,0,0.04801097393689986,12.434842249657065,0)" xlink:href="#Y"/><use transform="matrix(0.04801097393689986,0,0,0.04801097393689986,16.227709190672154,0)" xlink:href="#Z"/><use transform="matrix(0.04801097393689986,0,0,0.04801097393689986,25.829903978052126,0)" xlink:href="#P"/><use transform="matrix(0.04801097393689986,0,0,0.04801097393689986,35.4320987654321,0)" xlink:href="#aa"/></g><path fill="#fff" d="M20-101c0-91 52-143 145-150 126-9 127 168 53 223-23 17-55 32-93 32C57 4 20-33 20-101zm216-33c5-57-18-91-73-90-77 1-110 51-110 125 0 49 23 75 73 75 72-1 104-45 110-110" id="ab"/><path fill="#fff" d="M51-54c-9 22 5 41 31 30L79-1C43 14 10-4 19-52l22-115H19l5-23h22l19-43h21l-9 43h35l-4 23H73" id="ac"/><path fill="#fff" d="M6 0l50-261h32L37 0H6" id="ad"/><g id="h"><use transform="matrix(0.04801097393689986,0,0,0.04801097393689986,0,0)" xlink:href="#ab"/><use transform="matrix(0.04801097393689986,0,0,0.04801097393689986,13.44307270233196,0)" xlink:href="#V"/><use transform="matrix(0.04801097393689986,0,0,0.04801097393689986,23.045267489711932,0)" xlink:href="#ac"/><use transform="matrix(0.04801097393689986,0,0,0.04801097393689986,27.846364883401918,0)" xlink:href="#ad"/><use transform="matrix(0.04801097393689986,0,0,0.04801097393689986,31.63923182441701,0)" xlink:href="#T"/><use transform="matrix(0.04801097393689986,0,0,0.04801097393689986,41.24142661179698,0)" xlink:href="#ac"/></g><path fill="#fff" d="M219-77C219 17 104-2 11 0l48-248c73 2 169-15 169 57 0 38-24 54-60 60 29 5 51 21 51 54zm-26-111c0-44-62-31-105-33l-16 79c55 0 121 9 121-46zm-7 110c-1-49-69-36-119-38L50-27c61-1 137 12 136-51" id="ae"/><path fill="#fff" d="M165-48c-4 18 1 34 23 27l-3 20c-29 8-62 0-52-35h-2C116-14 99 4 63 4 30 4 8-16 8-49c0-68 71-67 138-67 10-26 0-56-31-54-26 1-42 9-47 31l-32-5c8-67 160-71 144 15-5 28-9 54-15 81zM42-50c3 52 80 24 89-6 7-12 7-24 11-38-47 1-103-4-100 44" id="af"/><g id="i"><use transform="matrix(0.04801097393689986,0,0,0.04801097393689986,0,0)" xlink:href="#ae"/><use transform="matrix(0.04801097393689986,0,0,0.04801097393689986,11.522633744855966,0)" xlink:href="#P"/><use transform="matrix(0.04801097393689986,0,0,0.04801097393689986,21.124828532235938,0)" xlink:href="#ac"/><use transform="matrix(0.04801097393689986,0,0,0.04801097393689986,25.925925925925924,0)" xlink:href="#af"/><use transform="matrix(0.04801097393689986,0,0,0.04801097393689986,35.528120713305896,0)" xlink:href="#aa"/></g><path fill="#fff" d="M125-24c46 0 70-25 89-51l25 16C214-24 183 4 123 4 8 4-5-146 60-208c32-50 158-61 191-5 5 7 9 14 11 22l-32 10c-9-28-33-43-69-43-74 0-108 51-108 125 0 46 24 75 72 75" id="ag"/><g id="j"><use transform="matrix(0.04801097393689986,0,0,0.04801097393689986,0,0)" xlink:href="#ag"/><use transform="matrix(0.04801097393689986,0,0,0.04801097393689986,12.434842249657065,0)" xlink:href="#af"/><use transform="matrix(0.04801097393689986,0,0,0.04801097393689986,22.037037037037038,0)" xlink:href="#aa"/><use transform="matrix(0.04801097393689986,0,0,0.04801097393689986,30.679012345679013,0)" xlink:href="#V"/><use transform="matrix(0.04801097393689986,0,0,0.04801097393689986,40.281207133058984,0)" xlink:href="#af"/><use transform="matrix(0.04801097393689986,0,0,0.04801097393689986,49.883401920438956,0)" xlink:href="#ad"/></g><path fill="#fff" d="M67-158c22-48 132-52 116 29L158 0h-32l25-140c3-38-53-32-70-12C52-117 51-52 38 0H6l36-190h30" id="ah"/><g id="k"><use transform="matrix(0.04801097393689986,0,0,0.04801097393689986,0,0)" xlink:href="#ag"/><use transform="matrix(0.04801097393689986,0,0,0.04801097393689986,12.434842249657065,0)" xlink:href="#af"/><use transform="matrix(0.04801097393689986,0,0,0.04801097393689986,22.037037037037038,0)" xlink:href="#aa"/><use transform="matrix(0.04801097393689986,0,0,0.04801097393689986,30.679012345679013,0)" xlink:href="#ac"/><use transform="matrix(0.04801097393689986,0,0,0.04801097393689986,35.480109739369,0)" xlink:href="#T"/><use transform="matrix(0.04801097393689986,0,0,0.04801097393689986,45.08230452674897,0)" xlink:href="#ad"/><use transform="matrix(0.04801097393689986,0,0,0.04801097393689986,48.87517146776406,0)" xlink:href="#ad"/><use transform="matrix(0.04801097393689986,0,0,0.04801097393689986,52.66803840877916,0)" xlink:href="#af"/><use transform="matrix(0.04801097393689986,0,0,0.04801097393689986,62.27023319615912,0)" xlink:href="#ah"/><use transform="matrix(0.04801097393689986,0,0,0.04801097393689986,71.8724279835391,0)" xlink:href="#P"/><use transform="matrix(0.04801097393689986,0,0,0.04801097393689986,81.47462277091907,0)" xlink:href="#aa"/></g><path fill="#fff" d="M238-179c0 84-86 86-175 82L45 0H11l48-248c82 0 179-12 179 69zm-34 1c0-53-64-42-116-43l-19 98c63 0 135 9 135-55" id="ai"/><g id="l"><use transform="matrix(0.04801097393689986,0,0,0.04801097393689986,0,0)" xlink:href="#ai"/><use transform="matrix(0.04801097393689986,0,0,0.04801097393689986,11.522633744855966,0)" xlink:href="#ad"/><use transform="matrix(0.04801097393689986,0,0,0.04801097393689986,15.315500685871053,0)" xlink:href="#af"/><use transform="matrix(0.04801097393689986,0,0,0.04801097393689986,24.91769547325103,0)" xlink:href="#ah"/><use transform="matrix(0.04801097393689986,0,0,0.04801097393689986,34.519890260631,0)" xlink:href="#P"/></g><path fill="#fff" d="M87-220l-18 92h140l-5 28H64L45 0H11l48-248h178l-5 28H87" id="aj"/><g id="m"><use transform="matrix(0.04801097393689986,0,0,0.04801097393689986,0,0)" xlink:href="#aj"/><use transform="matrix(0.04801097393689986,0,0,0.04801097393689986,10.51440329218107,0)" xlink:href="#Y"/><use transform="matrix(0.04801097393689986,0,0,0.04801097393689986,14.307270233196158,0)" xlink:href="#T"/><use transform="matrix(0.04801097393689986,0,0,0.04801097393689986,23.909465020576132,0)" xlink:href="#aa"/><use transform="matrix(0.04801097393689986,0,0,0.04801097393689986,32.55144032921811,0)" xlink:href="#ac"/><use transform="matrix(0.04801097393689986,0,0,0.04801097393689986,37.352537722908096,0)" xlink:href="#af"/></g><path fill="#fff" d="M151-220L108 0H75l42-220H32l6-28h203l-5 28h-85" id="ak"/><path fill="#fff" d="M44-68c0 29 11 47 38 47 30 0 42-19 51-41l28 9C148-21 126 4 82 4 31 4 10-29 12-85c3-77 74-140 146-93 12 8 15 23 18 40l-31 5c-1-22-13-36-36-36-52 0-65 49-65 101" id="al"/><path fill="#fff" d="M31-147c31-64 166-65 159 27C184-49 159 1 87 4 10 8 2-88 31-147zM89-20c53 0 68-48 68-100 0-31-11-51-44-50-52 1-68 46-68 97 0 32 13 53 44 53zm5-191c10-23 31-35 45-54h38l-1 5-66 49H94" id="am"/><g id="n"><use transform="matrix(0.04801097393689986,0,0,0.04801097393689986,0,0)" xlink:href="#ak"/><use transform="matrix(0.04801097393689986,0,0,0.04801097393689986,8.930041152263374,0)" xlink:href="#af"/><use transform="matrix(0.04801097393689986,0,0,0.04801097393689986,18.532235939643346,0)" xlink:href="#al"/><use transform="matrix(0.04801097393689986,0,0,0.04801097393689986,27.17421124828532,0)" xlink:href="#am"/><use transform="matrix(0.04801097393689986,0,0,0.04801097393689986,36.77640603566529,0)" xlink:href="#ah"/></g><path fill="#fff" d="M103-194c29 0 47 14 56 36 2-11 5-23 8-32h30L160-5C157 61 82 97 21 62 9 55 4 45 1 30l28-7c7 42 83 31 92-3 4-16 9-38 13-55-13 20-29 36-62 36-40 0-60-25-60-64 0-71 23-131 91-131zm4 24c-53 0-58 54-61 104-2 27 10 44 36 44 49 0 65-50 67-102 1-29-15-46-42-46" id="an"/><g id="o"><use transform="matrix(0.04801097393689986,0,0,0.04801097393689986,0,0)" xlink:href="#ag"/><use transform="matrix(0.04801097393689986,0,0,0.04801097393689986,12.434842249657065,0)" xlink:href="#P"/><use transform="matrix(0.04801097393689986,0,0,0.04801097393689986,22.037037037037038,0)" xlink:href="#ad"/><use transform="matrix(0.04801097393689986,0,0,0.04801097393689986,25.829903978052126,0)" xlink:href="#T"/><use transform="matrix(0.04801097393689986,0,0,0.04801097393689986,35.4320987654321,0)" xlink:href="#an"/><use transform="matrix(0.04801097393689986,0,0,0.04801097393689986,45.03429355281207,0)" xlink:href="#Y"/><use transform="matrix(0.04801097393689986,0,0,0.04801097393689986,48.827160493827165,0)" xlink:href="#af"/><use transform="matrix(0.04801097393689986,0,0,0.04801097393689986,58.42935528120713,0)" xlink:href="#ad"/></g><g id="p"><use transform="matrix(0.04801097393689986,0,0,0.04801097393689986,0,0)" xlink:href="#ab"/><use transform="matrix(0.04801097393689986,0,0,0.04801097393689986,13.44307270233196,0)" xlink:href="#ac"/><use transform="matrix(0.04801097393689986,0,0,0.04801097393689986,18.244170096021946,0)" xlink:href="#S"/><use transform="matrix(0.04801097393689986,0,0,0.04801097393689986,23.95747599451303,0)" xlink:href="#P"/><use transform="matrix(0.04801097393689986,0,0,0.04801097393689986,33.559670781893004,0)" xlink:href="#aa"/></g><path fill="#a9afb8" d="M230 0l2-204L168 0h-37L68-204 70 0H24v-248h70l56 185 57-185h69V0h-46" id="ao"/><path fill="#a9afb8" d="M133-34C117-15 103 5 69 4 32 3 11-16 11-54c-1-60 55-63 116-61 1-26-3-47-28-47-18 1-26 9-28 27l-52-2c7-38 36-58 82-57s74 22 75 68l1 82c-1 14 12 18 25 15v27c-30 8-71 5-69-32zm-48 3c29 0 43-24 42-57-32 0-66-3-65 30 0 17 8 27 23 27" id="ap"/><path fill="#a9afb8" d="M135-194c53 0 70 44 70 98 0 56-19 98-73 100-31 1-45-17-59-34 3 33 2 69 2 105H25l-1-265h48c2 10 0 23 3 31 11-24 29-35 60-35zM114-30c33 0 39-31 40-66 0-38-9-64-40-64-56 0-55 130 0 130" id="aq"/><g id="q"><use transform="matrix(0.0728395061728395,0,0,0.0728395061728395,0,0)" xlink:href="#ao"/><use transform="matrix(0.0728395061728395,0,0,0.0728395061728395,21.77901234567901,0)" xlink:href="#ap"/><use transform="matrix(0.0728395061728395,0,0,0.0728395061728395,36.34691358024691,0)" xlink:href="#aq"/><use transform="matrix(0.0728395061728395,0,0,0.0728395061728395,52.29876543209876,0)" xlink:href="#ap"/></g><path fill="#a9afb8" d="M190-63c-7 42-38 67-86 67-59 0-84-38-90-98-12-110 154-137 174-36l-49 2c-2-19-15-32-35-32-30 0-35 28-38 64-6 74 65 87 74 30" id="ar"/><path fill="#a9afb8" d="M110-194c64 0 96 36 96 99 0 64-35 99-97 99-61 0-95-36-95-99 0-62 34-99 96-99zm-1 164c35 0 45-28 45-65 0-40-10-65-43-65-34 0-45 26-45 65 0 36 10 65 43 65" id="as"/><path fill="#a9afb8" d="M135-194c87-1 58 113 63 194h-50c-7-57 23-157-34-157-59 0-34 97-39 157H25l-1-190h47c2 12-1 28 3 38 12-26 28-41 61-42" id="at"/><path fill="#a9afb8" d="M185-48c-13 30-37 53-82 52C43 2 14-33 14-96s30-98 90-98c62 0 83 45 84 108H66c0 31 8 55 39 56 18 0 30-7 34-22zm-45-69c5-46-57-63-70-21-2 6-4 13-4 21h74" id="au"/><path fill="#a9afb8" d="M115-3C79 11 28 4 28-45v-112H4v-33h27l15-45h31v45h36v33H77v99c-1 23 16 31 38 25v30" id="av"/><path fill="#a9afb8" d="M85 4C-2 5 27-109 22-190h50c7 57-23 150 33 157 60-5 35-97 40-157h50l1 190h-47c-2-12 1-28-3-38-12 25-28 42-61 42" id="aw"/><path fill="#a9afb8" d="M25 0v-261h50V0H25" id="ax"/><g id="r"><use transform="matrix(0.0728395061728395,0,0,0.0728395061728395,0,0)" xlink:href="#ar"/><use transform="matrix(0.0728395061728395,0,0,0.0728395061728395,14.5679012345679,0)" xlink:href="#as"/><use transform="matrix(0.0728395061728395,0,0,0.0728395061728395,30.51975308641975,0)" xlink:href="#at"/><use transform="matrix(0.0728395061728395,0,0,0.0728395061728395,46.471604938271604,0)" xlink:href="#ar"/><use transform="matrix(0.0728395061728395,0,0,0.0728395061728395,61.0395061728395,0)" xlink:href="#au"/><use transform="matrix(0.0728395061728395,0,0,0.0728395061728395,75.60740740740741,0)" xlink:href="#aq"/><use transform="matrix(0.0728395061728395,0,0,0.0728395061728395,91.55925925925926,0)" xlink:href="#av"/><use transform="matrix(0.0728395061728395,0,0,0.0728395061728395,100.22716049382717,0)" xlink:href="#aw"/><use transform="matrix(0.0728395061728395,0,0,0.0728395061728395,116.17901234567903,0)" xlink:href="#ap"/><use transform="matrix(0.0728395061728395,0,0,0.0728395061728395,130.74691358024694,0)" xlink:href="#ax"/></g><path fill="#a9afb8" d="M115-194c55 1 70 41 70 98S169 2 115 4C84 4 66-9 55-30l1 105H24l-1-265h31l2 30c10-21 28-34 59-34zm-8 174c40 0 45-34 45-75s-6-73-45-74c-42 0-51 32-51 76 0 43 10 73 51 73" id="ay"/><path fill="#a9afb8" d="M100-194c63 0 86 42 84 106H49c0 40 14 67 53 68 26 1 43-12 49-29l28 8c-11 28-37 45-77 45C44 4 14-33 15-96c1-61 26-98 85-98zm52 81c6-60-76-77-97-28-3 7-6 17-6 28h103" id="az"/><path fill="#a9afb8" d="M114-163C36-179 61-72 57 0H25l-1-190h30c1 12-1 29 2 39 6-27 23-49 58-41v29" id="aA"/><path fill="#a9afb8" d="M9 0v-24l116-142H16v-24h144v24L44-24h123V0H9" id="aB"/><path fill="#a9afb8" d="M101-251c82-7 93 87 43 132L82-64C71-53 59-42 53-27h129V0H18c2-99 128-94 128-182 0-28-16-43-45-43s-46 15-49 41l-32-3c6-41 34-60 81-64" id="aC"/><path fill="#a9afb8" d="M101-251c68 0 85 55 85 127S166 4 100 4C33 4 14-52 14-124c0-73 17-127 87-127zm-1 229c47 0 54-49 54-102s-4-102-53-102c-51 0-55 48-55 102 0 53 5 102 54 102" id="aD"/><path fill="#a9afb8" d="M155-56V0h-30v-56H8v-25l114-167h33v167h35v25h-35zm-30-156c-27 46-58 90-88 131h88v-131" id="aE"/><path fill="#a9afb8" d="M110-160c48 1 74 30 74 79 0 53-28 85-80 85-65 0-83-55-86-122-5-90 50-162 133-122 14 7 22 21 27 39l-31 6c-5-40-67-38-82-6-9 19-15 44-15 74 11-20 30-34 60-33zm-7 138c34 0 49-23 49-58s-16-56-50-56c-29 0-50 16-49 49 1 36 15 65 50 65" id="aF"/><path fill="#a9afb8" d="M126-127c33 6 58 20 58 59 0 88-139 92-164 29-3-8-5-16-6-25l32-3c6 27 21 44 54 44 32 0 52-15 52-46 0-38-36-46-79-43v-28c39 1 72-4 72-42 0-27-17-43-46-43-28 0-47 15-49 41l-32-3c6-42 35-63 81-64 48-1 79 21 79 65 0 36-21 52-52 59" id="aG"/><g id="s"><use transform="matrix(0.04248971193415638,0,0,0.04248971193415638,0,0)" xlink:href="#ay"/><use transform="matrix(0.04248971193415638,0,0,0.04248971193415638,8.497942386831275,0)" xlink:href="#az"/><use transform="matrix(0.04248971193415638,0,0,0.04248971193415638,16.99588477366255,0)" xlink:href="#aA"/><use transform="matrix(0.04248971193415638,0,0,0.04248971193415638,22.05216049382716,0)" xlink:href="#az"/><use transform="matrix(0.04248971193415638,0,0,0.04248971193415638,30.550102880658436,0)" xlink:href="#aB"/><use transform="matrix(0.04248971193415638,0,0,0.04248971193415638,38.19825102880658,0)" xlink:href="#aC"/><use transform="matrix(0.04248971193415638,0,0,0.04248971193415638,46.69619341563786,0)" xlink:href="#aD"/><use transform="matrix(0.04248971193415638,0,0,0.04248971193415638,55.194135802469134,0)" xlink:href="#aE"/><use transform="matrix(0.04248971193415638,0,0,0.04248971193415638,63.69207818930041,0)" xlink:href="#aF"/><use transform="matrix(0.04248971193415638,0,0,0.04248971193415638,72.19002057613169,0)" xlink:href="#aG"/></g><path fill="#a9afb8" d="M32 76v-337h29V76H32" id="aH"/><use transform="matrix(0.04248971193415638,0,0,0.04248971193415638,0,0)" xlink:href="#aH" id="t"/><path fill="#a9afb8" d="M140-251c81 0 123 46 123 126C263-46 219 4 140 4 59 4 17-45 17-125s42-126 123-126zm0 227c63 0 89-41 89-101s-29-99-89-99c-61 0-89 39-89 99S79-25 140-24" id="aI"/><path fill="#a9afb8" d="M96-169c-40 0-48 33-48 73s9 75 48 75c24 0 41-14 43-38l32 2c-6 37-31 61-74 61-59 0-76-41-82-99-10-93 101-131 147-64 4 7 5 14 7 22l-32 3c-4-21-16-35-41-35" id="aJ"/><path fill="#a9afb8" d="M59-47c-2 24 18 29 38 22v24C64 9 27 4 27-40v-127H5v-23h24l9-43h21v43h35v23H59v120" id="aK"/><path fill="#a9afb8" d="M100-194c62-1 85 37 85 99 1 63-27 99-86 99S16-35 15-95c0-66 28-99 85-99zM99-20c44 1 53-31 53-75 0-43-8-75-51-75s-53 32-53 75 10 74 51 75" id="aL"/><path fill="#a9afb8" d="M115-194c53 0 69 39 70 98 0 66-23 100-70 100C84 3 66-7 56-30L54 0H23l1-261h32v101c10-23 28-34 59-34zm-8 174c40 0 45-34 45-75 0-40-5-75-45-74-42 0-51 32-51 76 0 43 10 73 51 73" id="aM"/><g id="u"><use transform="matrix(0.04248971193415638,0,0,0.04248971193415638,0,0)" xlink:href="#aI"/><use transform="matrix(0.04248971193415638,0,0,0.04248971193415638,11.897119341563785,0)" xlink:href="#aJ"/><use transform="matrix(0.04248971193415638,0,0,0.04248971193415638,19.545267489711932,0)" xlink:href="#aK"/><use transform="matrix(0.04248971193415638,0,0,0.04248971193415638,23.79423868312757,0)" xlink:href="#aL"/><use transform="matrix(0.04248971193415638,0,0,0.04248971193415638,32.29218106995884,0)" xlink:href="#aM"/><use transform="matrix(0.04248971193415638,0,0,0.04248971193415638,40.79012345679012,0)" xlink:href="#az"/><use transform="matrix(0.04248971193415638,0,0,0.04248971193415638,49.288065843621396,0)" xlink:href="#aA"/></g><path fill="#a9afb8" d="M54-142c48-35 137-8 131 61C196 18 31 33 14-55l32-4c7 23 22 37 52 37 35-1 51-22 54-58 4-55-73-65-99-34H22l8-134h141v27H59" id="aN"/><path fill="#a9afb8" d="M68-38c1 34 0 65-14 84H32c9-13 17-26 17-46H33v-38h35" id="aO"/><g id="v"><use transform="matrix(0.04248971193415638,0,0,0.04248971193415638,0,0)" xlink:href="#aN"/><use transform="matrix(0.04248971193415638,0,0,0.04248971193415638,8.497942386831275,0)" xlink:href="#aO"/></g><g id="w"><use transform="matrix(0.04248971193415638,0,0,0.04248971193415638,0,0)" xlink:href="#aC"/><use transform="matrix(0.04248971193415638,0,0,0.04248971193415638,8.497942386831275,0)" xlink:href="#aD"/><use transform="matrix(0.04248971193415638,0,0,0.04248971193415638,16.99588477366255,0)" xlink:href="#aC"/><use transform="matrix(0.04248971193415638,0,0,0.04248971193415638,25.493827160493822,0)" xlink:href="#aD"/></g></defs></g></svg>